<svg xmlns="http://www.w3.org/2000/svg" viewBox="0 0 48 48">
  <rect width="48" height="48" fill="#fff"/>
  <g fill="#b22234"><path d="M0 0h48v4H0zM0 8h48v4H0zM0 16h48v4H0zM0 24h48v4H0zM0 32h48v4H0zM0 40h48v4H0z"/></g>
  <path fill="#3c3b6e" d="M0 0h25v26H0z"/>
  <g fill="#fff"><circle cx="4" cy="4" r="1.2"/><circle cx="10" cy="4" r="1.2"/><circle cx="16" cy="4" r="1.2"/><circle cx="22" cy="4" r="1.2"/><circle cx="7" cy="9" r="1.2"/><circle cx="13" cy="9" r="1.2"/><circle cx="19" cy="9" r="1.2"/><circle cx="4" cy="14" r="1.2"/><circle cx="10" cy="14" r="1.2"/><circle cx="16" cy="14" r="1.2"/><circle cx="22" cy="14" r="1.2"/><circle cx="7" cy="19" r="1.2"/><circle cx="13" cy="19" r="1.2"/><circle cx="19" cy="19" r="1.2"/></g>
</svg>
