<svg xmlns="http://www.w3.org/2000/svg" viewBox="0 0 400 400" fill="none" shape-rendering="auto"><metadata xmlns:rdf="http://www.w3.org/1999/02/22-rdf-syntax-ns#" xmlns:xsi="http://www.w3.org/2001/XMLSchema-instance" xmlns:dc="http://purl.org/dc/elements/1.1/" xmlns:dcterms="http://purl.org/dc/terms/"><rdf:RDF><rdf:Description><dc:title>Adventurer Neutral</dc:title><dc:creator>Lisa Wischofsky</dc:creator><dc:source xsi:type="dcterms:URI">https://www.figma.com/community/file/1184595184137881796</dc:source><dcterms:license xsi:type="dcterms:URI">https://creativecommons.org/licenses/by/4.0/</dcterms:license><dc:rights>Remix of „Adventurer Neutral” (https://www.figma.com/community/file/1184595184137881796) by „Lisa Wischofsky”, licensed under „CC BY 4.0” (https://creativecommons.org/licenses/by/4.0/)</dc:rights></rdf:Description></rdf:RDF></metadata><mask id="viewboxMask"><rect width="400" height="400" rx="0" ry="0" x="0" y="0" fill="#fff" /></mask><g mask="url(#viewboxMask)"><rect fill="#763900" width="400" height="400" x="0" y="0" /><g transform="translate(-279 -322)"><path d="M555 424.09a65.26 65.26 0 0 1 42.06 13.81c18.47 14.28 28.15 38.55 24.23 61.62-1 7.61-3.96 14.36-6.83 21.38-1.43.6-2.9 1.25-4.4 1.62-3.14-.02-6.34-1.4-9.37-2.2a176.16 176.16 0 0 0-47.7-6.93c-13.29.44-27.28 2.39-39.33 8.3-2.83 1.28-5.6 3-8.59 3.86-3.52-.25-4.36-3.15-5.94-5.74-7.02-13.13-9.05-28.5-6.31-43.08a64.94 64.94 0 0 1 19.15-34.8A65.1 65.1 0 0 1 555 424.1Z" fill="#000"/><path d="M557 429.85c13.47-.19 26.63 4.66 37.13 13a59.2 59.2 0 0 1 20 30.16c4.23 14.46 2.5 30.12-4.26 43.54-6.14-.92-11.86-3.14-17.94-4.39-16.73-3.67-34.37-5.5-51.43-3.48a91.33 91.33 0 0 0-34.84 11.18c-6.86-11.98-10.07-26.23-7.6-39.92 2-12.66 8.2-24.57 17.41-33.47 10.95-10.62 26.24-16.88 41.53-16.62Z" fill="#fff"/><path d="M381.25 447.09a55.37 55.37 0 0 1 36.48 9.14 55.05 55.05 0 0 1 23.4 36.2c1.25 8.36.98 17.28-1.59 25.37a54.9 54.9 0 0 1-23.86 30.9 54.63 54.63 0 0 1-34.72 7.72 54.72 54.72 0 0 1-39.57-23.79c-5.78-8.44-8.88-18.4-9.5-28.58-.36-12.78 3.55-25.6 11.4-35.73a55.12 55.12 0 0 1 37.96-21.23Z" fill="#000"/><path d="M376.5 453.66a48.91 48.91 0 0 1 33.29 4.5c17.34 8.92 28.1 28.43 26.3 47.84-1.14 11.3-5.91 22.08-13.92 30.17A49.58 49.58 0 0 1 391 550.94c-19.4 1.77-38.75-9-47.7-26.26a49.34 49.34 0 0 1 2.47-49.94 49.32 49.32 0 0 1 30.73-21.08Z" fill="#fff"/><path d="M519.43 474.74c8.56-2.21 17.77 3.55 19.3 12.29 1.86 8.33-3.88 16.92-12.2 18.57-9.2 2.17-18.82-5.06-18.99-14.6-.68-7.5 4.66-14.47 11.9-16.26ZM403.43 485.61c9.52-3.24 20.05 4.4 20.34 14.34.81 8.84-6.85 17.06-15.74 16.75-8.62.39-16.04-7.14-15.96-15.68-.25-6.97 4.7-13.5 11.36-15.4ZM598.82 532.68c1.05.34 2.1.7 3.16 1.06-.43 1.65-.27 3.3-1.72 4.43-6.9 5.73-16.13 10.13-25.25 9.91-3.84-.08-8.61-1-11.46-3.78-.26-1.17-.33-2.4-.44-3.59l2.82-.93c4.52 2.16 9.07 3.47 14.1 2.21 7.46-1.28 12.59-5.5 18.8-9.3ZM347.06 547.76c2.26-.5 3.85 1.46 5.53 2.62 9.4 7.75 21.34 11.38 33.42 11.45 5.83.1 10.84-2.25 16.7-1.34-.5 2.38-.06 4.38-2.93 5.06-18.1 4.87-38.96.17-52.89-12.5-1.77-1.37-2.24-4.32.17-5.29Z" fill="#000"/></g><g transform="translate(-279 -322)"><path d="M452.03 395.85c.66 4.64-1.5 9.35-4.2 13-3.6 4.46-7.82 8.36-12.86 11.13-7.66 4.35-15.96 7.7-24.2 10.81-23.78 8.79-48.55 15.1-73.5 19.48-3.36.54-6.98 1.5-10.37 1.11-1.92-.92-2-2.82-1.1-4.52 2.33-1.8 5.48-2.72 8.18-3.89 35.94-14.72 71.88-29.45 107.8-44.2 3.36-1.25 6.6-3.38 10.25-2.92ZM478.97 396c49.32 7.61 98.68 15.15 148.01 22.75 2.58.42 5.33.58 7.8 1.41 2.45 1.14 1.71 5.04-.95 5.26-9.6.95-19.18 1.82-28.83 1.95-15.39.1-30.64.32-45.98-1.18-20.9-1.64-42.24-4.59-62.25-11.06-6.97-2.4-14.88-5.46-20.27-10.64-1.8-1.9-4.09-4.28-3.17-7.13 1.22-2.13 3.6-1.6 5.64-1.36Z" fill="#000"/></g><g transform="translate(-279 -322)"><path d="M524.16 555.86c.61 6.97-.8 13.29-1.53 20.14a244.24 244.24 0 0 1-19.15 70.23c-3.65 7.33-6.72 15.74-13.94 20.34-3.86 2.79-9.11 1.94-13.2.16-4.48-2.23-8.94-4.98-12.4-8.63a171.31 171.31 0 0 1-29.95-42.13c-6.76-12.54-11.65-25.76-17.12-38.87-.92-2.1-1.13-4.11 1.07-5.43 4.38-.1 8.65 1.41 13.06 1.45 9.89.33 20 .52 29.81-.88 17.69-2.04 35.09-7.15 51.54-13.9 4.22-1.53 7.13-4.31 11.8-2.48Z" fill="#000"/><path d="M518.92 562c-2.1 16.35-4.16 32.05-8.89 47.96-9.07-.71-18.45 2.59-26.46 6.61-10.54 5.48-21.2 13.48-27.26 23.89-7.57-9.81-13.74-20.42-19.35-31.44-5.4-10.14-9.36-20.75-13.97-31.24 9.45.8 18.5 2.05 28 1 23.2-.72 46.68-7.68 67.93-16.78Z" fill="#8F2E45"/><path d="M508.19 616.1c-3.83 13.3-8.82 26.4-15.55 38.52-1.62 2.89-3.68 5.84-6.7 7.39-4.1 1.71-9.13-1.19-12.46-3.5-5.34-3.38-8.58-8.29-12.86-12.75 1.94-5.34 6.2-9.98 10.4-13.7 7.82-6.68 17.1-12.04 27-14.9 3.33-1.04 6.71-1.16 10.17-1.06Z" fill="#EA869E"/></g><g transform="translate(-279 -322)"></g></g></svg>