<svg xmlns="http://www.w3.org/2000/svg" viewBox="0 0 256 256" fill="none" shape-rendering="auto"><metadata xmlns:rdf="http://www.w3.org/1999/02/22-rdf-syntax-ns#" xmlns:xsi="http://www.w3.org/2001/XMLSchema-instance" xmlns:dc="http://purl.org/dc/elements/1.1/" xmlns:dcterms="http://purl.org/dc/terms/"><rdf:RDF><rdf:Description><dc:title>Croodles - Doodle your face</dc:title><dc:creator>vijay verma</dc:creator><dc:source xsi:type="dcterms:URI">https://www.figma.com/community/file/966199982810283152</dc:source><dcterms:license xsi:type="dcterms:URI">https://creativecommons.org/licenses/by/4.0/</dcterms:license><dc:rights>Remix of „Croodles - Doodle your face” (https://www.figma.com/community/file/966199982810283152) by „vijay verma”, licensed under „CC BY 4.0” (https://creativecommons.org/licenses/by/4.0/)</dc:rights></rdf:Description></rdf:RDF></metadata><mask id="viewboxMask"><rect width="256" height="256" rx="0" ry="0" x="0" y="0" fill="#fff" /></mask><g mask="url(#viewboxMask)"><path d="M73.3 106.5c2-5.5 4-9.8 5.4-12.2-.1-.4 0-.8.1-1.1 3-4.9 9-9.3 16.4-12.9a90.7 90.7 0 0 1 26.3-7.5c19.2-2.5 40.7.5 53.9 14.4.2.3.4.6.4 1 1 1.1 2.2 3.2 3.6 6a109 109 0 0 1 4.4 10.2c1.4-.5 3-.7 4.6-.5a7 7 0 0 1 5.4 3.3c2 3.5 2.9 10 1.6 15.8a6.7 6.7 0 0 1-2.6 4.2 6 6 0 0 1-2.3 1c.5 2.8 1 5.6 1.3 8.5 2.8 23.3-1.3 49.6-26 62.6-23.6 12.4-47 16-65.6 12.3-18.7-3.8-32.6-15-36.7-32.5-3.2-13.5-1.3-31 2.2-46.7-1.5-.3-3-1.4-3.9-3-1.3-2.1-2-5.2-1.7-9.2.5-6.2 2.1-10.6 4.8-12.8a7 7 0 0 1 4.6-1.8 9 9 0 0 1 3.8.9Z" fill="#ffffff"/><g stroke="#000" stroke-width="3" stroke-linecap="round" stroke-linejoin="round"><path d="M79 93.7c-6 10-22.2 57.6-15.5 86.4 8.1 34.4 54.6 44.9 102.1 19.7C214.3 174 182.2 95.5 175.3 88"/><path d="M184.3 105.4c2.6-1.1 7.4-1.3 9.3 2 1.8 3.2 2.7 9.3 1.4 15.1-.7 3.3-3 4.3-5 4.3M72.5 107.8c-5.9-3.5-11.4-.2-12.4 12.2-.7 7.9 2.9 11.4 5.4 11"/></g><g transform="translate(116 120)"><path d="M20.8 8c2.7 8 7.6 25.3 5.8 29.4-2.1 5-5.4-2.3-5.4 3.5-1 2.8-3.8 3.2-5.1-1.6-1.3-4.7-5.2 3.5-6.5 1.6-3.6-1.6-.7-7.1 1.2-8.9" stroke="#000" stroke-width="3" stroke-linecap="round" stroke-linejoin="round"/></g><g transform="translate(57 132)"></g><g transform="translate(86 184)"><path d="M4 14.8s5.7-2.8 7.1-7.6M12.2 9c.2.8-7 9.3-7 9.3M14.2 8.6C13.7 12.7 9 18.9 9 18.9M11.6 20s5.3-4.8 5.8-10.3M19.6 9.4c0 3.5-1.7 11.2-1.7 11.2M45.6 7.7V20M18.7 20.2s4.2-5.3 4.2-9.6M49.2 18.2s-3-6.2-3-10.6M25.3 10.2c.3 2.4-2.9 9.8-2.9 9.8M55.5 6.9c.3 2.3 5.4 8.3 5.4 8.3M49.2 8a50 50 0 0 0 4.8 9.8M27.7 10c-.6 4-1.3 10.7-1.3 10.7M50.8 7.3l6.4 9.2M30 9.9c.6 2.8.8 8.6 3.7 10.6M58.5 7.3c1.5 2.3 4.4 5.9 8.2 6.8M34 9c0 1.3-1.8 5.9 1 11M40 20.5S35 14.3 35 9M37.5 8.6c0 3.8 6.1 12 6.1 12M44.5 20c-.6-2-3.8-9.3-3.4-12.5" stroke="#000" stroke-width="3" stroke-linecap="round" stroke-linejoin="round"/></g><g transform="translate(-2 -17)"><g stroke="#699bf7" stroke-width="3" stroke-linecap="round" stroke-linejoin="round"><path d="M78.5 109c5.5-.8 12 1.5 29.5-11.5s25-15 31.5-16M70 111c6.5-8 11.5-3.5 29-16.5s26.5-15 33-16M119 101.5c3-2.5 5.4-3.9 13.5-8 8-4.1 12.5-6.5 15.5-7M125 103.5c5-1.5 7.5-4 13.6-7.6 6-3.6 12.4-7 15.4-7.4M138 104.5c5-1.5 7.5-4 13.6-7.6 6-3.6 3.4-3 6.4-3.4M131 70c-13.2 3.7-41.2 12.8-48 20"/><path d="M122.5 81c-13.2 3.7-42.7 12.3-49.5 19.5M113.5 99.5c16-11.5 23.5-16 30-17M153.5 91.5c6 6.3 22 19 38 19M132 73c4.8-.5 15.5-.7 19.5 2.5 5 4 23.5 15.5 31 15.5"/><path d="M129 78.8c5.8-.6 18.7-.8 23.6 3 6 4.9 28.3 18.7 37.4 18.7"/></g></g><g transform="translate(71 151)"></g><g transform="translate(71 89)"><path d="M33 35.6c-1.8-1.7.5-4.4 2.5-3.4 2.5 1.3 3.4 4.3 1.2 6.5s-7.2.8-7.5-4.5c-.3-5.3 6.5-9.2 10-3 3.3 6.3 2.2 11.9-5.2 11.9-5.1 0-7.3-3.6-7.9-7-1-6.7 2.5-13.6 9.7-12 4.5 1 9.7 4 8.8 13.3-1 9.3-6 10.3-12.3 9.2-7.7-1.3-9.8-8.2-7.3-16M78.5 35.6c-1.9-1.7.4-4.4 2.4-3.4 2.5 1.3 3.4 4.3 1.2 6.5-2.1 2.2-7.1.8-7.5-4.5-.3-5.3 6.5-9.2 10-3 3.3 6.3 2.2 11.9-5.2 11.9-5.1 0-7.3-3.6-7.8-7-1-6.7 2.4-13.6 9.7-12 4.4 1 9.6 4 8.7 13.3-1 9.3-6 10.3-12.3 9.2-7.7-1.3-9.8-8.2-7.3-16M29.8 15.9c3 2.2 8.8 2.6 12 1M72.2 16.8c3.6 1 9.2-.3 11.8-2.8" stroke="#000" stroke-width="3" stroke-linecap="round" stroke-linejoin="round"/></g></g></svg>